<svg width="302" height="178" viewBox="0 0 302 178" fill="none" xmlns="http://www.w3.org/2000/svg">
<path d="M16.034 9.986H11.942L16.344 0.623998H21.614L16.034 9.986ZM15.476 47.744C5.618 47.744 0.472 41.234 0.472 31.562C0.472 21.58 5.68 14.326 15.042 14.326C23.04 14.326 28.682 19.72 28.31 31.562L4.936 31.748C4.998 39.436 8.532 43.776 15.6 43.776C21.118 43.776 23.66 41.11 24.776 37.328L28.806 38.32C27.132 44.272 22.668 47.744 15.476 47.744ZM14.98 18.418C9.71 18.418 6.114 22.014 5.184 28.214L23.908 28.09C23.536 21.642 20.002 18.418 14.98 18.418ZM48.1205 47.744C39.8125 47.744 35.3485 40.676 35.3485 31.066C35.3485 21.456 39.8745 14.326 48.0585 14.326C55.0025 14.326 57.7925 19.534 59.0945 24.432H60.0865C59.5285 20.96 59.0325 16.372 59.0325 13.272V3.91H63.6205V47H59.3425L59.7765 38.63H58.8465C57.3585 43.714 54.3205 47.744 48.1205 47.744ZM48.8025 43.652C55.1265 43.652 59.0325 36.832 59.0325 31.562V30.942C59.0325 26.664 56.0565 18.542 49.0505 18.542C43.0985 18.542 40.0605 24.122 40.0605 31.314C40.0605 38.816 43.2845 43.652 48.8025 43.652ZM84 47.744C77.056 47.744 73.398 42.908 73.398 33.236V15.07H78.048V32.926C78.048 40.056 80.094 43.59 85.054 43.59C90.324 43.59 93.734 38.072 94.726 30.136V15.07H99.252V47H94.974L95.656 36.646H94.726C93.3 44.334 89.394 47.744 84 47.744ZM122.886 47.744C111.726 47.744 107.882 39.622 107.882 31.376C107.882 22.138 112.594 14.326 122.514 14.326C129.582 14.326 134.542 18.232 135.472 24.556L131.07 25.672C130.822 22.386 128.28 18.418 122.514 18.418C115.756 18.418 112.532 24.122 112.532 31.376C112.532 38.568 115.632 43.776 122.948 43.776C128.156 43.776 131.318 41.048 132.062 36.15L136.34 37.142C134.976 44.52 129.768 47.744 122.886 47.744ZM151.444 47.744C146.174 47.744 142.144 44.892 142.144 38.692C142.144 32.802 145.864 29.702 156.652 28.276C161.55 27.656 163.534 27.408 163.534 24.37C163.534 21.022 161.302 18.294 156.342 18.294C152.684 18.294 147.972 19.906 147.228 25.486L142.95 23.936C144.004 18.232 148.778 14.326 156.466 14.326C164.216 14.326 168.06 18.108 168.06 26.54V34.166C168.06 37.948 168.37 43.28 168.804 47H164.526C164.216 44.21 164.092 41.606 164.03 38.94H163.286C161.488 43.59 157.892 47.744 151.444 47.744ZM152.436 43.838C156.094 43.838 160.558 41.544 163.596 35.034V30.012C158.264 32.43 146.732 30.756 146.732 38.506C146.732 42.04 149.026 43.838 152.436 43.838ZM187.395 47.62C181.877 47.62 179.211 44.582 179.211 38.506V19.038H174.375V15.07H177.289C179.211 15.07 179.893 14.45 180.141 12.776L180.699 7.878H183.613V15.07H193.161V19.1H183.613V38.506C183.613 41.916 185.225 43.342 188.139 43.342C189.689 43.342 191.487 43.032 193.347 41.606V46.38C191.053 47.248 189.069 47.62 187.395 47.62ZM202.975 9.242C200.681 9.242 199.503 8.312 199.503 6.39C199.503 4.53 200.681 3.538 202.975 3.538C205.269 3.538 206.385 4.53 206.385 6.39C206.385 8.312 205.269 9.242 202.975 9.242ZM200.681 47V15.07H205.207V47H200.681ZM229.09 47.744C220.038 47.744 213.9 41.482 213.9 30.88C213.9 19.844 220.596 14.326 228.904 14.326C237.46 14.326 244.094 20.278 244.094 31.19C244.094 42.04 237.584 47.744 229.09 47.744ZM229.276 43.776C235.538 43.776 239.506 38.878 239.506 31.252C239.506 23.44 235.414 18.418 228.78 18.418C222.58 18.418 218.488 22.944 218.488 30.756C218.488 38.754 222.704 43.776 229.276 43.776ZM252.689 47V27.036V15.07H257.091L256.347 25.362H257.277C259.013 17.798 262.547 14.326 268.499 14.326C275.443 14.326 279.101 19.41 279.101 29.082V47H274.513V29.392C274.513 22.014 272.095 18.542 267.507 18.542C261.307 18.542 257.649 25.238 257.277 32.554V47H252.689ZM2.146 112V92.036V80.07H6.548L5.804 90.362H6.734C8.47 82.798 12.004 79.326 17.956 79.326C24.9 79.326 28.558 84.41 28.558 94.082V112H23.97V94.392C23.97 87.014 21.552 83.542 16.964 83.542C10.764 83.542 7.106 90.238 6.734 97.554V112H2.146ZM48.459 112.744C41.515 112.744 37.857 107.908 37.857 98.236V80.07H42.507V97.926C42.507 105.056 44.553 108.59 49.513 108.59C54.783 108.59 58.193 103.072 59.185 95.136V80.07H63.711V112H59.433L60.115 101.646H59.185C57.759 109.334 53.853 112.744 48.459 112.744ZM74.0151 112V92.47V80.07H78.2931L77.6731 90.362H78.6031C80.2151 83.108 83.5011 79.326 88.7091 79.326C94.9711 79.326 97.7611 84.72 97.6371 90.176H98.5671C99.8071 83.356 103.341 79.326 108.859 79.326C115.183 79.326 118.655 84.658 118.655 94.206V112H114.129V94.826C114.129 87.324 111.959 83.604 107.805 83.604C102.907 83.604 99.4971 88.936 98.5671 96.5V112H94.1031V95.446C94.1031 87.572 91.9951 83.604 87.7791 83.604C82.5711 83.604 79.4091 89.556 78.6031 96.81V112H74.0151ZM142.335 74.986H138.243L142.645 65.624H147.915L142.335 74.986ZM141.777 112.744C131.919 112.744 126.773 106.234 126.773 96.562C126.773 86.58 131.981 79.326 141.343 79.326C149.341 79.326 154.983 84.72 154.611 96.562L131.237 96.748C131.299 104.436 134.833 108.776 141.901 108.776C147.419 108.776 149.961 106.11 151.077 102.328L155.107 103.32C153.433 109.272 148.969 112.744 141.777 112.744ZM141.281 83.418C136.011 83.418 132.415 87.014 131.485 93.214L150.209 93.09C149.837 86.642 146.303 83.418 141.281 83.418ZM163.08 112V94.082V80.07H167.42L166.738 91.292H167.73C168.97 84.472 171.698 79.326 177.216 79.326C178.146 79.326 179.262 79.388 180.688 79.884L180.378 84.658C179.2 84.286 177.96 83.976 176.906 83.976C171.946 83.976 169.342 89.68 167.668 96.438V112H163.08ZM189.412 74.242C187.118 74.242 185.94 73.312 185.94 71.39C185.94 69.53 187.118 68.538 189.412 68.538C191.706 68.538 192.822 69.53 192.822 71.39C192.822 73.312 191.706 74.242 189.412 74.242ZM187.118 112V80.07H191.644V112H187.118ZM224.083 121.92V113.426C224.083 110.202 224.579 106.11 225.075 102.886H224.145C222.843 107.66 220.053 112.744 213.109 112.744C204.925 112.744 200.399 105.676 200.399 96.066C200.399 86.766 204.553 79.326 213.357 79.326C219.743 79.326 222.595 83.356 223.897 88.13H224.827L224.393 80.132H228.671V121.92H224.083ZM214.101 108.59C221.107 108.59 224.083 100.53 224.083 96.252V95.632C224.083 89.928 220.115 83.542 213.853 83.542C208.335 83.542 205.111 88.378 205.111 95.88C205.111 103.134 208.149 108.59 214.101 108.59ZM249.051 112.744C242.107 112.744 238.449 107.908 238.449 98.236V80.07H243.099V97.926C243.099 105.056 245.145 108.59 250.105 108.59C255.375 108.59 258.785 103.072 259.777 95.136V80.07H264.303V112H260.025L260.707 101.646H259.777C258.351 109.334 254.445 112.744 249.051 112.744ZM287.937 112.744C278.079 112.744 272.933 106.234 272.933 96.562C272.933 86.58 278.141 79.326 287.503 79.326C295.501 79.326 301.143 84.72 300.771 96.562L277.397 96.748C277.459 104.436 280.993 108.776 288.061 108.776C293.579 108.776 296.121 106.11 297.237 102.328L301.267 103.32C299.593 109.272 295.129 112.744 287.937 112.744ZM287.441 83.418C282.171 83.418 278.575 87.014 277.645 93.214L296.369 93.09C295.997 86.642 292.463 83.418 287.441 83.418ZM1.092 177V161.252V144.45H8.47L8.532 155.548H9.71C10.64 147.364 13.616 143.706 20.188 143.706C20.932 143.706 21.738 143.706 22.916 143.954L22.544 153.44C21.304 152.882 19.692 152.634 18.514 152.634C13.616 152.634 10.888 155.982 10.082 161.996V177H1.092ZM35.1164 177.868C29.6604 177.868 25.8164 174.582 25.8164 168.568C25.8164 161.438 31.3964 159.516 41.3784 158.028C45.2844 157.47 47.1444 157.098 47.1444 154.618C47.1444 152.324 45.5944 150.402 41.9984 150.402C38.4644 150.402 35.4264 152.262 34.4964 156.044L26.6224 153.626C28.6064 146.868 34.1244 143.582 42.1844 143.582C51.6084 143.582 55.9484 148.046 55.9484 158.028V163.608C55.9484 167.948 56.1964 172.66 56.6304 177H48.7564C48.3844 174.954 48.1364 172.164 47.9504 169.374H46.8344C45.0984 174.086 41.0064 177.868 35.1164 177.868ZM38.8984 171.42C41.9984 171.42 45.6564 169.188 47.3304 165.158L47.2684 161.066C42.4324 163.236 34.4344 161.934 34.4344 167.266C34.4344 169.808 36.2324 171.42 38.8984 171.42ZM68.284 139.552C64.75 139.552 62.89 138.064 62.89 135.274C62.89 132.422 64.75 130.934 68.284 130.934C71.88 130.934 73.74 132.422 73.74 135.274C73.74 138.064 71.818 139.552 68.284 139.552ZM63.82 177V144.45H72.686V177H63.82ZM93.9733 177.868C85.1693 177.868 79.7133 174.396 78.7833 168.94L85.6033 166.15C86.0993 168.878 89.1373 171.296 94.5313 171.296C98.2513 171.296 100.483 170.118 100.483 168.072C100.483 165.778 97.7553 165.034 93.0433 164.104C86.9053 162.802 79.4033 161.128 79.4033 153.564C79.4033 147.612 84.3633 143.582 93.2913 143.582C101.289 143.582 106.559 146.992 107.985 152.572L100.731 154.99C100.235 151.952 97.5073 150.154 93.2913 150.154C89.7573 150.154 87.7113 151.394 87.7113 153.316C87.7113 155.672 90.7493 156.416 95.4613 157.408C101.971 158.772 108.667 160.198 108.667 167.514C108.667 174.024 103.335 177.868 93.9733 177.868ZM129.858 177.868C120.062 177.868 113.304 171.978 113.304 160.632C113.304 149.162 120.248 143.582 129.858 143.582C139.53 143.582 146.536 149.348 146.536 160.756C146.536 172.412 139.344 177.868 129.858 177.868ZM130.168 171.234C135.004 171.234 137.546 167.762 137.546 161.252C137.546 154.494 134.88 150.526 129.61 150.526C124.898 150.526 122.232 153.874 122.232 160.508C122.232 167.514 125.146 171.234 130.168 171.234ZM152.883 177V157.284V144.45H160.199L160.137 154.184H161.377C162.927 147.054 166.585 143.582 172.785 143.582C180.287 143.582 184.317 148.666 184.317 160.012V177H175.327V161.004C175.327 154.122 173.281 151.022 169.375 151.022C164.353 151.022 161.873 156.106 161.811 162.244V177H152.883ZM191.996 177V157.284V144.45H199.312L199.25 154.184H200.49C202.04 147.054 205.698 143.582 211.898 143.582C219.4 143.582 223.43 148.666 223.43 160.012V177H214.44V161.004C214.44 154.122 212.394 151.022 208.488 151.022C203.466 151.022 200.986 156.106 200.924 162.244V177H191.996ZM248.098 139.986H241.278L245.928 129.508H254.794L248.098 139.986ZM246.238 177.868C235.574 177.868 229.312 171.854 229.312 161.314C229.312 150.96 235.326 143.582 245.618 143.582C255.538 143.582 261.366 150.278 260.622 162.368L237.868 162.554C238.302 168.63 241.526 171.358 246.238 171.358C250.888 171.358 252.438 168.63 253.182 166.15L260.932 167.824C259.568 173.838 255.104 177.868 246.238 177.868ZM245.742 150.526C241.898 150.526 239.046 153.068 238.116 157.718L252.438 157.532C252.19 152.696 249.214 150.526 245.742 150.526ZM282.566 177.868C271.902 177.868 265.64 171.854 265.64 161.314C265.64 150.96 271.654 143.582 281.946 143.582C291.866 143.582 297.694 150.278 296.95 162.368L274.196 162.554C274.63 168.63 277.854 171.358 282.566 171.358C287.216 171.358 288.766 168.63 289.51 166.15L297.26 167.824C295.896 173.838 291.432 177.868 282.566 177.868ZM282.07 150.526C278.226 150.526 275.374 153.068 274.444 157.718L288.766 157.532C288.518 152.696 285.542 150.526 282.07 150.526Z" fill="black"/>
</svg>
