<svg width="302" height="158" viewBox="0 0 302 158" fill="none" xmlns="http://www.w3.org/2000/svg">
<path d="M16.034 9.986H11.942L16.344 0.623998H21.614L16.034 9.986ZM15.476 47.744C5.618 47.744 0.472 41.234 0.472 31.562C0.472 21.58 5.68 14.326 15.042 14.326C23.04 14.326 28.682 19.72 28.31 31.562L4.936 31.748C4.998 39.436 8.532 43.776 15.6 43.776C21.118 43.776 23.66 41.11 24.776 37.328L28.806 38.32C27.132 44.272 22.668 47.744 15.476 47.744ZM14.98 18.418C9.71 18.418 6.114 22.014 5.184 28.214L23.908 28.09C23.536 21.642 20.002 18.418 14.98 18.418ZM48.1205 47.744C39.8125 47.744 35.3485 40.676 35.3485 31.066C35.3485 21.456 39.8745 14.326 48.0585 14.326C55.0025 14.326 57.7925 19.534 59.0945 24.432H60.0865C59.5285 20.96 59.0325 16.372 59.0325 13.272V3.91H63.6205V47H59.3425L59.7765 38.63H58.8465C57.3585 43.714 54.3205 47.744 48.1205 47.744ZM48.8025 43.652C55.1265 43.652 59.0325 36.832 59.0325 31.562V30.942C59.0325 26.664 56.0565 18.542 49.0505 18.542C43.0985 18.542 40.0605 24.122 40.0605 31.314C40.0605 38.816 43.2845 43.652 48.8025 43.652ZM84 47.744C77.056 47.744 73.398 42.908 73.398 33.236V15.07H78.048V32.926C78.048 40.056 80.094 43.59 85.054 43.59C90.324 43.59 93.734 38.072 94.726 30.136V15.07H99.252V47H94.974L95.656 36.646H94.726C93.3 44.334 89.394 47.744 84 47.744ZM122.886 47.744C111.726 47.744 107.882 39.622 107.882 31.376C107.882 22.138 112.594 14.326 122.514 14.326C129.582 14.326 134.542 18.232 135.472 24.556L131.07 25.672C130.822 22.386 128.28 18.418 122.514 18.418C115.756 18.418 112.532 24.122 112.532 31.376C112.532 38.568 115.632 43.776 122.948 43.776C128.156 43.776 131.318 41.048 132.062 36.15L136.34 37.142C134.976 44.52 129.768 47.744 122.886 47.744ZM151.444 47.744C146.174 47.744 142.144 44.892 142.144 38.692C142.144 32.802 145.864 29.702 156.652 28.276C161.55 27.656 163.534 27.408 163.534 24.37C163.534 21.022 161.302 18.294 156.342 18.294C152.684 18.294 147.972 19.906 147.228 25.486L142.95 23.936C144.004 18.232 148.778 14.326 156.466 14.326C164.216 14.326 168.06 18.108 168.06 26.54V34.166C168.06 37.948 168.37 43.28 168.804 47H164.526C164.216 44.21 164.092 41.606 164.03 38.94H163.286C161.488 43.59 157.892 47.744 151.444 47.744ZM152.436 43.838C156.094 43.838 160.558 41.544 163.596 35.034V30.012C158.264 32.43 146.732 30.756 146.732 38.506C146.732 42.04 149.026 43.838 152.436 43.838ZM187.395 47.62C181.877 47.62 179.211 44.582 179.211 38.506V19.038H174.375V15.07H177.289C179.211 15.07 179.893 14.45 180.141 12.776L180.699 7.878H183.613V15.07H193.161V19.1H183.613V38.506C183.613 41.916 185.225 43.342 188.139 43.342C189.689 43.342 191.487 43.032 193.347 41.606V46.38C191.053 47.248 189.069 47.62 187.395 47.62ZM202.975 9.242C200.681 9.242 199.503 8.312 199.503 6.39C199.503 4.53 200.681 3.538 202.975 3.538C205.269 3.538 206.385 4.53 206.385 6.39C206.385 8.312 205.269 9.242 202.975 9.242ZM200.681 47V15.07H205.207V47H200.681ZM229.09 47.744C220.038 47.744 213.9 41.482 213.9 30.88C213.9 19.844 220.596 14.326 228.904 14.326C237.46 14.326 244.094 20.278 244.094 31.19C244.094 42.04 237.584 47.744 229.09 47.744ZM229.276 43.776C235.538 43.776 239.506 38.878 239.506 31.252C239.506 23.44 235.414 18.418 228.78 18.418C222.58 18.418 218.488 22.944 218.488 30.756C218.488 38.754 222.704 43.776 229.276 43.776ZM252.689 47V27.036V15.07H257.091L256.347 25.362H257.277C259.013 17.798 262.547 14.326 268.499 14.326C275.443 14.326 279.101 19.41 279.101 29.082V47H274.513V29.392C274.513 22.014 272.095 18.542 267.507 18.542C261.307 18.542 257.649 25.238 257.277 32.554V47H252.689ZM2.146 102V82.036V70.07H6.548L5.804 80.362H6.734C8.47 72.798 12.004 69.326 17.956 69.326C24.9 69.326 28.558 74.41 28.558 84.082V102H23.97V84.392C23.97 77.014 21.552 73.542 16.964 73.542C10.764 73.542 7.106 80.238 6.734 87.554V102H2.146ZM48.459 102.744C41.515 102.744 37.857 97.908 37.857 88.236V70.07H42.507V87.926C42.507 95.056 44.553 98.59 49.513 98.59C54.783 98.59 58.193 93.072 59.185 85.136V70.07H63.711V102H59.433L60.115 91.646H59.185C57.759 99.334 53.853 102.744 48.459 102.744ZM74.0151 102V82.47V70.07H78.2931L77.6731 80.362H78.6031C80.2151 73.108 83.5011 69.326 88.7091 69.326C94.9711 69.326 97.7611 74.72 97.6371 80.176H98.5671C99.8071 73.356 103.341 69.326 108.859 69.326C115.183 69.326 118.655 74.658 118.655 84.206V102H114.129V84.826C114.129 77.324 111.959 73.604 107.805 73.604C102.907 73.604 99.4971 78.936 98.5671 86.5V102H94.1031V85.446C94.1031 77.572 91.9951 73.604 87.7791 73.604C82.5711 73.604 79.4091 79.556 78.6031 86.81V102H74.0151ZM142.335 64.986H138.243L142.645 55.624H147.915L142.335 64.986ZM141.777 102.744C131.919 102.744 126.773 96.234 126.773 86.562C126.773 76.58 131.981 69.326 141.343 69.326C149.341 69.326 154.983 74.72 154.611 86.562L131.237 86.748C131.299 94.436 134.833 98.776 141.901 98.776C147.419 98.776 149.961 96.11 151.077 92.328L155.107 93.32C153.433 99.272 148.969 102.744 141.777 102.744ZM141.281 73.418C136.011 73.418 132.415 77.014 131.485 83.214L150.209 83.09C149.837 76.642 146.303 73.418 141.281 73.418ZM163.08 102V84.082V70.07H167.42L166.738 81.292H167.73C168.97 74.472 171.698 69.326 177.216 69.326C178.146 69.326 179.262 69.388 180.688 69.884L180.378 74.658C179.2 74.286 177.96 73.976 176.906 73.976C171.946 73.976 169.342 79.68 167.668 86.438V102H163.08ZM189.412 64.242C187.118 64.242 185.94 63.312 185.94 61.39C185.94 59.53 187.118 58.538 189.412 58.538C191.706 58.538 192.822 59.53 192.822 61.39C192.822 63.312 191.706 64.242 189.412 64.242ZM187.118 102V70.07H191.644V102H187.118ZM224.083 111.92V103.426C224.083 100.202 224.579 96.11 225.075 92.886H224.145C222.843 97.66 220.053 102.744 213.109 102.744C204.925 102.744 200.399 95.676 200.399 86.066C200.399 76.766 204.553 69.326 213.357 69.326C219.743 69.326 222.595 73.356 223.897 78.13H224.827L224.393 70.132H228.671V111.92H224.083ZM214.101 98.59C221.107 98.59 224.083 90.53 224.083 86.252V85.632C224.083 79.928 220.115 73.542 213.853 73.542C208.335 73.542 205.111 78.378 205.111 85.88C205.111 93.134 208.149 98.59 214.101 98.59ZM249.051 102.744C242.107 102.744 238.449 97.908 238.449 88.236V70.07H243.099V87.926C243.099 95.056 245.145 98.59 250.105 98.59C255.375 98.59 258.785 93.072 259.777 85.136V70.07H264.303V102H260.025L260.707 91.646H259.777C258.351 99.334 254.445 102.744 249.051 102.744ZM287.937 102.744C278.079 102.744 272.933 96.234 272.933 86.562C272.933 76.58 278.141 69.326 287.503 69.326C295.501 69.326 301.143 74.72 300.771 86.562L277.397 86.748C277.459 94.436 280.993 98.776 288.061 98.776C293.579 98.776 296.121 96.11 297.237 92.328L301.267 93.32C299.593 99.272 295.129 102.744 287.937 102.744ZM287.441 73.418C282.171 73.418 278.575 77.014 277.645 83.214L296.369 83.09C295.997 76.642 292.463 73.418 287.441 73.418ZM1.092 157V141.252V124.45H8.47L8.532 135.548H9.71C10.64 127.364 13.616 123.706 20.188 123.706C20.932 123.706 21.738 123.706 22.916 123.954L22.544 133.44C21.304 132.882 19.692 132.634 18.514 132.634C13.616 132.634 10.888 135.982 10.082 141.996V157H1.092ZM35.1164 157.868C29.6604 157.868 25.8164 154.582 25.8164 148.568C25.8164 141.438 31.3964 139.516 41.3784 138.028C45.2844 137.47 47.1444 137.098 47.1444 134.618C47.1444 132.324 45.5944 130.402 41.9984 130.402C38.4644 130.402 35.4264 132.262 34.4964 136.044L26.6224 133.626C28.6064 126.868 34.1244 123.582 42.1844 123.582C51.6084 123.582 55.9484 128.046 55.9484 138.028V143.608C55.9484 147.948 56.1964 152.66 56.6304 157H48.7564C48.3844 154.954 48.1364 152.164 47.9504 149.374H46.8344C45.0984 154.086 41.0064 157.868 35.1164 157.868ZM38.8984 151.42C41.9984 151.42 45.6564 149.188 47.3304 145.158L47.2684 141.066C42.4324 143.236 34.4344 141.934 34.4344 147.266C34.4344 149.808 36.2324 151.42 38.8984 151.42ZM68.284 119.552C64.75 119.552 62.89 118.064 62.89 115.274C62.89 112.422 64.75 110.934 68.284 110.934C71.88 110.934 73.74 112.422 73.74 115.274C73.74 118.064 71.818 119.552 68.284 119.552ZM63.82 157V124.45H72.686V157H63.82ZM93.9733 157.868C85.1693 157.868 79.7133 154.396 78.7833 148.94L85.6033 146.15C86.0993 148.878 89.1373 151.296 94.5313 151.296C98.2513 151.296 100.483 150.118 100.483 148.072C100.483 145.778 97.7553 145.034 93.0433 144.104C86.9053 142.802 79.4033 141.128 79.4033 133.564C79.4033 127.612 84.3633 123.582 93.2913 123.582C101.289 123.582 106.559 126.992 107.985 132.572L100.731 134.99C100.235 131.952 97.5073 130.154 93.2913 130.154C89.7573 130.154 87.7113 131.394 87.7113 133.316C87.7113 135.672 90.7493 136.416 95.4613 137.408C101.971 138.772 108.667 140.198 108.667 147.514C108.667 154.024 103.335 157.868 93.9733 157.868ZM129.858 157.868C120.062 157.868 113.304 151.978 113.304 140.632C113.304 129.162 120.248 123.582 129.858 123.582C139.53 123.582 146.536 129.348 146.536 140.756C146.536 152.412 139.344 157.868 129.858 157.868ZM130.168 151.234C135.004 151.234 137.546 147.762 137.546 141.252C137.546 134.494 134.88 130.526 129.61 130.526C124.898 130.526 122.232 133.874 122.232 140.508C122.232 147.514 125.146 151.234 130.168 151.234ZM152.883 157V137.284V124.45H160.199L160.137 134.184H161.377C162.927 127.054 166.585 123.582 172.785 123.582C180.287 123.582 184.317 128.666 184.317 140.012V157H175.327V141.004C175.327 134.122 173.281 131.022 169.375 131.022C164.353 131.022 161.873 136.106 161.811 142.244V157H152.883ZM191.996 157V137.284V124.45H199.312L199.25 134.184H200.49C202.04 127.054 205.698 123.582 211.898 123.582C219.4 123.582 223.43 128.666 223.43 140.012V157H214.44V141.004C214.44 134.122 212.394 131.022 208.488 131.022C203.466 131.022 200.986 136.106 200.924 142.244V157H191.996ZM248.098 119.986H241.278L245.928 109.508H254.794L248.098 119.986ZM246.238 157.868C235.574 157.868 229.312 151.854 229.312 141.314C229.312 130.96 235.326 123.582 245.618 123.582C255.538 123.582 261.366 130.278 260.622 142.368L237.868 142.554C238.302 148.63 241.526 151.358 246.238 151.358C250.888 151.358 252.438 148.63 253.182 146.15L260.932 147.824C259.568 153.838 255.104 157.868 246.238 157.868ZM245.742 130.526C241.898 130.526 239.046 133.068 238.116 137.718L252.438 137.532C252.19 132.696 249.214 130.526 245.742 130.526ZM282.566 157.868C271.902 157.868 265.64 151.854 265.64 141.314C265.64 130.96 271.654 123.582 281.946 123.582C291.866 123.582 297.694 130.278 296.95 142.368L274.196 142.554C274.63 148.63 277.854 151.358 282.566 151.358C287.216 151.358 288.766 148.63 289.51 146.15L297.26 147.824C295.896 153.838 291.432 157.868 282.566 157.868ZM282.07 130.526C278.226 130.526 275.374 133.068 274.444 137.718L288.766 137.532C288.518 132.696 285.542 130.526 282.07 130.526Z" fill="black"/>
</svg>
