<svg width="266" height="143" viewBox="0 0 266 143" fill="none" xmlns="http://www.w3.org/2000/svg">
<path d="M15.12 41.728C7.672 41.728 3.08 37.696 3.08 28.232C3.08 19.552 7.336 14.792 14.504 14.792C23.8 14.792 25.032 21.736 25.032 25.488C25.032 26.104 25.032 26.888 24.92 27.56C24.808 28.176 24.416 28.456 23.688 28.456H4.816C4.816 36.52 8.568 40.272 15.12 40.272C19.32 40.272 21.392 38.816 23.016 37.472C23.184 37.36 23.296 37.304 23.464 37.304C23.856 37.304 24.192 37.64 24.192 38.032C24.192 38.312 24.024 38.48 23.856 38.648C22.96 39.488 20.272 41.728 15.12 41.728ZM23.352 27.056C23.352 27.056 23.408 25.936 23.408 25.488C23.408 21.008 21.672 16.248 14.504 16.248C8.176 16.248 5.04 20.392 4.816 27.056H23.352ZM17.528 4.264C17.864 3.872 18.312 3.816 18.76 4.208C19.152 4.544 19.208 5.048 18.816 5.44L12.992 11.712C12.656 12.104 12.32 11.992 12.096 11.768C11.816 11.488 11.704 11.208 11.984 10.872L17.528 4.264ZM48.1639 1.128H52.3639C52.7559 1.128 53.2039 1.464 53.2039 1.968V39.544H56.5639C56.9559 39.544 57.2919 39.88 57.2919 40.272C57.2919 40.664 56.9559 41 56.5639 41H52.2519C51.7479 41 51.5239 40.664 51.5239 40.328V37.416C49.6199 40.328 46.3719 41.728 42.3959 41.728C35.2279 41.728 30.9159 37.416 30.9159 28.232C30.9159 19.048 35.2279 14.792 42.3959 14.792C49.2839 14.792 51.5239 20.112 51.5239 20.112V2.584H48.1639C47.7719 2.584 47.4359 2.248 47.4359 1.856C47.4359 1.464 47.7719 1.128 48.1639 1.128ZM51.5239 22.8C51.5239 22.8 49.3399 16.248 42.3959 16.248C36.0679 16.248 32.7079 19.944 32.7079 28.232C32.7079 36.632 36.0679 40.272 42.3959 40.272C47.4919 40.272 51.5239 37.584 51.5239 31.368V22.8ZM79.8945 15.576H84.0945C84.1505 15.576 84.2065 15.576 84.3185 15.632C84.6545 15.744 84.9345 16.08 84.9345 16.416V39.544H88.2945C88.6865 39.544 89.0225 39.88 89.0225 40.272C89.0225 40.664 88.6865 41 88.2945 41H83.9265C83.4785 41 83.2545 40.664 83.2545 40.328V37.752C81.7985 40.16 79.1665 41.728 74.6865 41.728C66.2305 41.728 64.4385 36.968 64.4385 31.76V17.032H61.0785C60.6865 17.032 60.3505 16.696 60.3505 16.304C60.3505 15.912 60.6865 15.576 61.0785 15.576H65.2785C65.7265 15.576 66.1185 15.968 66.1185 16.416V31.76C66.1185 36.352 67.5745 40.272 74.6865 40.272C81.4065 40.272 83.2545 36.352 83.2545 32.432V17.032H79.8945C79.5025 17.032 79.1665 16.696 79.1665 16.304C79.1665 15.912 79.5025 15.576 79.8945 15.576ZM105.451 41.728C98.2826 41.728 93.9706 37.416 93.9706 28.232C93.9706 19.048 98.2826 14.792 105.451 14.792C110.995 14.792 113.179 17.816 113.739 18.544C113.851 18.712 113.907 18.88 113.907 19.048C113.907 19.44 113.571 19.776 113.179 19.776C112.899 19.776 112.731 19.664 112.563 19.44C111.611 18.32 109.931 16.248 105.451 16.248C99.1226 16.248 95.7626 19.944 95.7626 28.232C95.7626 36.632 99.1226 40.272 105.451 40.272C109.315 40.272 111.443 38.648 112.899 37.528C113.067 37.416 113.179 37.36 113.347 37.36C113.739 37.36 114.075 37.696 114.075 38.088C114.075 38.256 114.019 38.48 113.739 38.704C112.619 39.6 109.987 41.728 105.451 41.728ZM142.587 41H138.443C137.995 41 137.659 40.664 137.659 40.216V37.304C135.811 40.272 132.171 41.672 128.419 41.672C122.147 41.672 118.675 38.872 118.675 33.944C118.675 29.016 122.651 26.16 129.035 26.16H137.659V23.584C137.659 18.824 134.579 16.248 129.427 16.248C124.891 16.248 123.099 18.264 121.755 20.336C121.587 20.616 121.307 20.728 121.083 20.728C120.635 20.728 120.299 20.392 120.299 19.944C120.299 19.776 120.355 19.608 120.467 19.44C121.923 17.088 124.723 14.792 129.427 14.792C136.315 14.792 139.227 18.488 139.227 24.032V39.544H142.587C142.979 39.544 143.315 39.88 143.315 40.272C143.315 40.664 142.979 41 142.587 41ZM120.411 33.944C120.411 37.808 122.987 40.216 128.419 40.216C133.291 40.216 137.659 37.584 137.659 32.32V27.56H129.035C123.995 27.56 120.411 29.632 120.411 33.944ZM150.195 15.576V8.744C150.195 8.296 150.587 7.904 151.035 7.904C151.483 7.904 151.875 8.296 151.875 8.744V15.576H156.915C157.307 15.576 157.643 15.912 157.643 16.304C157.643 16.696 157.307 17.032 156.915 17.032H151.875V34.84C151.875 38.2 153.947 39.992 156.971 39.992C157.363 39.992 157.699 40.328 157.699 40.72C157.699 41.112 157.363 41.448 156.971 41.448C152.603 41.448 150.195 38.648 150.195 34.84V17.032H146.723C146.331 17.032 145.995 16.696 145.995 16.304C145.995 15.912 146.331 15.576 146.723 15.576H150.195ZM162.713 15.576H166.913C167.361 15.576 167.753 15.856 167.753 16.416V39.544H171.113C171.505 39.544 171.841 39.88 171.841 40.272C171.841 40.664 171.505 41 171.113 41H162.713C162.321 41 161.985 40.664 161.985 40.272C161.985 39.88 162.321 39.544 162.713 39.544H166.073V17.032H162.713C162.321 17.032 161.985 16.696 161.985 16.304C161.985 15.912 162.321 15.576 162.713 15.576ZM167.921 6.672C167.921 7.512 167.585 7.848 166.913 7.848C166.241 7.848 165.905 7.512 165.905 6.672C165.905 5.832 166.241 5.496 166.913 5.496C167.585 5.496 167.921 5.832 167.921 6.672ZM199.892 28.232C199.892 37.416 195.58 41.728 188.412 41.728C181.244 41.728 176.932 37.416 176.932 28.232C176.932 19.048 181.244 14.792 188.412 14.792C195.58 14.792 199.892 19.048 199.892 28.232ZM188.412 40.272C194.684 40.272 198.1 36.576 198.1 28.232C198.1 20 194.684 16.248 188.412 16.248C182.14 16.248 178.724 20 178.724 28.232C178.724 36.576 182.14 40.272 188.412 40.272ZM224.617 39.544H227.977V24.704C227.977 20.168 226.409 16.248 219.577 16.248C213.473 16.248 210.841 21.176 210.841 25.264V39.544H214.201C214.593 39.544 214.929 39.88 214.929 40.272C214.929 40.664 214.593 41 214.201 41H205.801C205.409 41 205.073 40.664 205.073 40.272C205.073 39.88 205.409 39.544 205.801 39.544H209.161V17.032H205.801C205.409 17.032 205.073 16.696 205.073 16.304C205.073 15.912 205.409 15.576 205.801 15.576H210.001C210.505 15.576 210.841 16.024 210.841 16.416V20.168C211.681 17.928 214.369 14.792 219.633 14.792C227.697 14.792 229.657 19.552 229.657 24.704V39.544H233.017C233.409 39.544 233.745 39.88 233.745 40.272C233.745 40.664 233.409 41 233.017 41H224.617C224.225 41 223.889 40.664 223.889 40.272C223.889 39.88 224.225 39.544 224.617 39.544Z" fill="white"/>
<path d="M21.672 84.544H25.032V69.704C25.032 65.168 23.464 61.248 16.632 61.248C10.528 61.248 7.896 66.176 7.896 70.264V84.544H11.256C11.648 84.544 11.984 84.88 11.984 85.272C11.984 85.664 11.648 86 11.256 86H2.856C2.464 86 2.128 85.664 2.128 85.272C2.128 84.88 2.464 84.544 2.856 84.544H6.216V62.032H2.856C2.464 62.032 2.128 61.696 2.128 61.304C2.128 60.912 2.464 60.576 2.856 60.576H7.056C7.56 60.576 7.896 61.024 7.896 61.416V65.168C8.736 62.928 11.424 59.792 16.688 59.792C24.752 59.792 26.712 64.552 26.712 69.704V84.544H30.072C30.464 84.544 30.8 84.88 30.8 85.272C30.8 85.664 30.464 86 30.072 86H21.672C21.28 86 20.944 85.664 20.944 85.272C20.944 84.88 21.28 84.544 21.672 84.544ZM52.8789 60.576H57.0789C57.1349 60.576 57.1909 60.576 57.3029 60.632C57.6389 60.744 57.9189 61.08 57.9189 61.416V84.544H61.2789C61.6709 84.544 62.0069 84.88 62.0069 85.272C62.0069 85.664 61.6709 86 61.2789 86H56.9109C56.4629 86 56.2389 85.664 56.2389 85.328V82.752C54.7829 85.16 52.1509 86.728 47.6709 86.728C39.2149 86.728 37.4229 81.968 37.4229 76.76V62.032H34.0629C33.6709 62.032 33.3349 61.696 33.3349 61.304C33.3349 60.912 33.6709 60.576 34.0629 60.576H38.2629C38.7109 60.576 39.1029 60.968 39.1029 61.416V76.76C39.1029 81.352 40.5589 85.272 47.6709 85.272C54.3909 85.272 56.2389 81.352 56.2389 77.432V62.032H52.8789C52.4869 62.032 52.1509 61.696 52.1509 61.304C52.1509 60.912 52.4869 60.576 52.8789 60.576ZM66.731 60.576H70.931C71.491 60.576 71.771 61.024 71.771 61.416V65.224C72.555 62.76 75.187 59.792 80.283 59.792C85.547 59.792 88.291 62.032 89.299 65C90.083 62.648 92.827 59.792 98.091 59.792C106.155 59.792 108.059 64.552 108.059 69.704V84.544H111.419C111.811 84.544 112.147 84.88 112.147 85.272C112.147 85.664 111.811 86 111.419 86H103.019C102.627 86 102.291 85.664 102.291 85.272C102.291 84.88 102.627 84.544 103.019 84.544H106.379V69.704C106.379 65.168 104.587 61.192 98.091 61.192C92.211 61.192 89.915 65.336 89.915 69.76V84.488L93.275 84.432C93.667 84.432 94.003 84.88 94.003 85.272C94.003 85.664 93.667 85.888 93.275 85.888L84.875 86C84.483 86 84.147 85.664 84.147 85.272C84.147 84.88 84.483 84.544 84.875 84.544L88.235 84.488V69.704C88.235 65.168 86.723 61.192 80.115 61.192C74.235 61.192 71.771 66.288 71.771 70.936V84.544H75.131C75.523 84.544 75.859 84.88 75.859 85.272C75.859 85.664 75.523 86 75.131 86H66.731C66.339 86 66.003 85.664 66.003 85.272C66.003 84.88 66.339 84.544 66.731 84.544H70.091V62.032H66.731C66.339 62.032 66.003 61.696 66.003 61.304C66.003 60.912 66.339 60.576 66.731 60.576ZM128.487 86.728C121.039 86.728 116.447 82.696 116.447 73.232C116.447 64.552 120.703 59.792 127.871 59.792C137.167 59.792 138.399 66.736 138.399 70.488C138.399 71.104 138.399 71.888 138.287 72.56C138.175 73.176 137.783 73.456 137.055 73.456H118.183C118.183 81.52 121.935 85.272 128.487 85.272C132.687 85.272 134.759 83.816 136.383 82.472C136.551 82.36 136.663 82.304 136.831 82.304C137.223 82.304 137.559 82.64 137.559 83.032C137.559 83.312 137.391 83.48 137.223 83.648C136.327 84.488 133.639 86.728 128.487 86.728ZM136.719 72.056C136.719 72.056 136.775 70.936 136.775 70.488C136.775 66.008 135.039 61.248 127.871 61.248C121.543 61.248 118.407 65.392 118.183 72.056H136.719ZM130.895 49.264C131.231 48.872 131.679 48.816 132.127 49.208C132.519 49.544 132.575 50.048 132.183 50.44L126.359 56.712C126.023 57.104 125.687 56.992 125.463 56.768C125.183 56.488 125.071 56.208 125.351 55.872L130.895 49.264ZM144.059 60.576H148.259C148.707 60.576 149.099 60.968 149.099 61.416V66.456C150.275 62.704 153.411 59.848 158.675 59.848C159.067 59.848 159.403 60.184 159.403 60.576C159.403 60.968 159.067 61.304 158.675 61.304C152.235 61.304 149.099 66.288 149.099 72.392V84.544H155.035C155.427 84.544 155.763 84.88 155.763 85.272C155.763 85.664 155.427 86 155.035 86H144.059C143.667 86 143.331 85.664 143.331 85.272C143.331 84.88 143.667 84.544 144.059 84.544H147.419V62.032H144.059C143.667 62.032 143.331 61.696 143.331 61.304C143.331 60.912 143.667 60.576 144.059 60.576ZM163.643 60.576H167.843C168.291 60.576 168.683 60.856 168.683 61.416V84.544H172.043C172.435 84.544 172.771 84.88 172.771 85.272C172.771 85.664 172.435 86 172.043 86H163.643C163.251 86 162.915 85.664 162.915 85.272C162.915 84.88 163.251 84.544 163.643 84.544H167.003V62.032H163.643C163.251 62.032 162.915 61.696 162.915 61.304C162.915 60.912 163.251 60.576 163.643 60.576ZM168.851 51.672C168.851 52.512 168.515 52.848 167.843 52.848C167.171 52.848 166.835 52.512 166.835 51.672C166.835 50.832 167.171 50.496 167.843 50.496C168.515 50.496 168.851 50.832 168.851 51.672ZM194.661 95.8H198.581V81.352C198.581 81.352 196.229 86.728 189.341 86.728C182.173 86.728 177.861 82.416 177.861 73.232C177.861 64.048 182.173 59.792 189.341 59.792C193.373 59.792 196.677 61.416 198.581 64.552V61.416C198.581 60.968 198.973 60.576 199.421 60.576H203.621C204.013 60.576 204.349 60.912 204.349 61.304C204.349 61.696 204.013 62.032 203.621 62.032H200.261V95.8H203.621C204.013 95.8 204.349 96.136 204.349 96.528C204.349 96.92 204.013 97.256 203.621 97.256H194.661C194.269 97.256 193.933 96.92 193.933 96.528C193.933 96.136 194.269 95.8 194.661 95.8ZM198.581 78.72V70.6C198.581 64.048 194.549 61.248 189.341 61.248C183.013 61.248 179.653 64.944 179.653 73.232C179.653 81.632 183.013 85.272 189.341 85.272C196.173 85.272 198.581 78.72 198.581 78.72ZM226.949 60.576H231.149C231.205 60.576 231.261 60.576 231.373 60.632C231.709 60.744 231.989 61.08 231.989 61.416V84.544H235.349C235.741 84.544 236.077 84.88 236.077 85.272C236.077 85.664 235.741 86 235.349 86H230.981C230.533 86 230.309 85.664 230.309 85.328V82.752C228.853 85.16 226.221 86.728 221.741 86.728C213.285 86.728 211.493 81.968 211.493 76.76V62.032H208.133C207.741 62.032 207.405 61.696 207.405 61.304C207.405 60.912 207.741 60.576 208.133 60.576H212.333C212.781 60.576 213.173 60.968 213.173 61.416V76.76C213.173 81.352 214.629 85.272 221.741 85.272C228.461 85.272 230.309 81.352 230.309 77.432V62.032H226.949C226.557 62.032 226.221 61.696 226.221 61.304C226.221 60.912 226.557 60.576 226.949 60.576ZM253.065 86.728C245.617 86.728 241.025 82.696 241.025 73.232C241.025 64.552 245.281 59.792 252.449 59.792C261.745 59.792 262.977 66.736 262.977 70.488C262.977 71.104 262.977 71.888 262.865 72.56C262.753 73.176 262.361 73.456 261.633 73.456H242.761C242.761 81.52 246.513 85.272 253.065 85.272C257.265 85.272 259.337 83.816 260.961 82.472C261.129 82.36 261.241 82.304 261.409 82.304C261.801 82.304 262.137 82.64 262.137 83.032C262.137 83.312 261.969 83.48 261.801 83.648C260.905 84.488 258.217 86.728 253.065 86.728ZM261.297 72.056C261.297 72.056 261.353 70.936 261.353 70.488C261.353 66.008 259.617 61.248 252.449 61.248C246.121 61.248 242.985 65.392 242.761 72.056H261.297Z" fill="white"/>
<path d="M14.322 134H4.65C3.1 134 1.86 132.822 1.86 131.21C1.86 129.66 3.1 128.42 4.65 128.42H6.138V111.432H4.65C3.1 111.432 1.86 110.254 1.86 108.642C1.86 107.092 3.1 105.852 4.65 105.852H9.734C11.408 105.852 12.834 106.968 12.834 108.704V109.014C14.012 106.596 16.926 105.046 19.53 105.046C21.266 105.046 22.692 106.472 22.692 108.208C22.692 109.944 21.266 111.37 19.53 111.37C15.252 111.37 12.834 114.098 12.834 118.252V128.42H14.322C15.872 128.42 17.112 129.66 17.112 131.21C17.112 132.76 15.872 134 14.322 134ZM50.4898 134H45.4678C43.7938 134 42.4298 132.76 42.4298 131.21C40.7558 133.876 38.0278 134.806 34.3078 134.806C28.2318 134.806 24.2018 131.024 24.2018 125.444C24.2018 119.678 28.8518 116.702 34.2458 116.702H42.3678V115.586C42.3678 112.796 40.3218 110.936 36.7258 110.936C33.9978 110.936 32.0758 112.176 30.5258 113.292C29.9058 113.726 29.4098 113.912 28.6658 113.912C27.0538 113.912 25.7518 112.61 25.7518 110.998C25.7518 110.316 25.9998 109.572 26.5578 108.952C28.2938 107.03 31.3938 104.984 36.7258 104.984C44.4138 104.984 49.0018 108.766 49.0018 115.338V128.42H50.4898C52.0398 128.42 53.2798 129.66 53.2798 131.21C53.2798 132.76 52.0398 134 50.4898 134ZM30.8978 125.444C30.8978 127.8 32.5718 129.226 36.0438 129.226C39.3298 129.226 42.3678 127.118 42.3678 123.646V121.91H35.1138C32.3858 121.91 30.8978 123.212 30.8978 125.444ZM68.1482 134H58.4762C56.9262 134 55.6862 132.822 55.6862 131.21C55.6862 129.66 56.9262 128.42 58.4762 128.42H59.9642V111.432H58.4762C56.9262 111.432 55.6862 110.254 55.6862 108.642C55.6862 107.092 56.9262 105.852 58.4762 105.852H63.4982C65.4822 105.852 66.6602 107.278 66.6602 109.2V128.42H68.1482C69.6982 128.42 70.9382 129.66 70.9382 131.21C70.9382 132.76 69.6982 134 68.1482 134ZM67.1562 98.102C67.1562 100.52 65.7302 102.008 63.1262 102.008C60.5842 102.008 59.1582 100.52 59.1582 98.102C59.1582 95.25 60.5842 94.01 63.1262 94.01C65.7302 94.01 67.1562 95.25 67.1562 98.102ZM90.9564 112.796C89.5924 111.804 87.9184 110.812 85.3764 110.812C83.0824 110.812 81.7184 111.618 81.7184 113.168C81.7184 117.756 96.9704 115.648 96.9704 125.878C96.9704 131.706 92.0104 134.682 85.6244 134.682C80.2924 134.682 76.2004 132.264 74.6504 130.342C74.1544 129.722 73.9064 129.164 73.9064 128.42C73.9064 126.808 75.2704 125.444 76.8824 125.444C77.5024 125.444 78.1224 125.63 78.8044 126.188C80.4784 127.552 82.5244 128.73 85.6244 128.73C88.4144 128.73 90.2124 127.986 90.2124 126.25C90.2124 121.228 75.0224 123.832 75.0224 113.292C75.0224 107.712 79.6724 104.984 85.3764 104.984C89.7784 104.984 93.6844 106.658 95.4204 108.828C95.7924 109.324 96.0404 109.758 96.0404 110.688C96.0404 112.3 94.6764 113.664 93.0644 113.664C92.1964 113.664 91.6384 113.292 90.9564 112.796ZM128.26 119.926C128.26 130.032 123.052 134.806 114.682 134.806C106.312 134.806 101.104 130.032 101.104 119.926C101.104 109.758 106.312 104.984 114.682 104.984C123.052 104.984 128.26 109.758 128.26 119.926ZM114.682 129.102C119.146 129.102 121.502 126.002 121.502 119.926C121.502 113.788 119.146 110.688 114.682 110.688C110.218 110.688 107.862 113.788 107.862 119.926C107.862 126.002 110.218 129.102 114.682 129.102ZM144.74 134H135.068C133.518 134 132.278 132.822 132.278 131.21C132.278 129.66 133.518 128.42 135.068 128.42H136.556V111.432H135.068C133.518 111.432 132.278 110.254 132.278 108.642C132.278 107.092 133.518 105.852 135.068 105.852H140.09C141.888 105.852 143.252 106.906 143.252 108.704C144.43 106.906 147.034 104.984 151.188 104.984C159.62 104.984 161.604 110.378 161.604 115.772V128.42H163.092C164.642 128.42 165.882 129.66 165.882 131.21C165.882 132.76 164.642 134 163.092 134H153.42C151.87 134 150.63 132.822 150.63 131.21C150.63 129.66 151.87 128.42 153.42 128.42H154.908V117.012C154.908 113.478 153.482 111.06 149.452 111.06C144.802 111.06 143.252 113.912 143.252 117.756V128.42H144.74C146.29 128.42 147.53 129.66 147.53 131.21C147.53 132.76 146.29 134 144.74 134ZM181.068 134H171.396C169.846 134 168.606 132.822 168.606 131.21C168.606 129.66 169.846 128.42 171.396 128.42H172.884V111.432H171.396C169.846 111.432 168.606 110.254 168.606 108.642C168.606 107.092 169.846 105.852 171.396 105.852H176.418C178.216 105.852 179.58 106.906 179.58 108.704C180.758 106.906 183.362 104.984 187.516 104.984C195.948 104.984 197.932 110.378 197.932 115.772V128.42H199.42C200.97 128.42 202.21 129.66 202.21 131.21C202.21 132.76 200.97 134 199.42 134H189.748C188.198 134 186.958 132.822 186.958 131.21C186.958 129.66 188.198 128.42 189.748 128.42H191.236V117.012C191.236 113.478 189.81 111.06 185.78 111.06C181.13 111.06 179.58 113.912 179.58 117.756V128.42H181.068C182.618 128.42 183.858 129.66 183.858 131.21C183.858 132.76 182.618 134 181.068 134ZM219.194 134.806C210.576 134.806 205.244 130.156 205.244 119.802C205.244 110.316 210.204 104.984 218.636 104.984C229.114 104.984 231.036 113.044 231.036 117.322C231.036 119.616 231.036 122.282 227.254 122.282H211.94C211.94 126.746 215.102 128.792 219.194 128.792C221.922 128.792 223.844 127.862 225.332 126.87C226.014 126.436 226.51 126.188 227.316 126.188C228.928 126.188 230.23 127.49 230.23 129.102C230.23 130.094 229.734 130.9 229.176 131.396C228.122 132.388 224.836 134.806 219.194 134.806ZM224.402 116.702C224.402 113.664 222.666 110.688 218.636 110.688C215.04 110.688 212.436 112.734 212.126 116.702H224.402ZM218.574 101.45C217.52 102.38 216.528 102.194 215.722 101.45C214.73 100.52 214.73 99.342 215.412 98.598L220.682 91.902C221.55 90.786 223.162 90.848 224.402 92.088C225.766 93.39 225.642 94.878 224.65 95.808L218.574 101.45ZM249.165 134.806C240.547 134.806 235.215 130.156 235.215 119.802C235.215 110.316 240.175 104.984 248.607 104.984C259.085 104.984 261.007 113.044 261.007 117.322C261.007 119.616 261.007 122.282 257.225 122.282H241.911C241.911 126.746 245.073 128.792 249.165 128.792C251.893 128.792 253.815 127.862 255.303 126.87C255.985 126.436 256.481 126.188 257.287 126.188C258.899 126.188 260.201 127.49 260.201 129.102C260.201 130.094 259.705 130.9 259.147 131.396C258.093 132.388 254.807 134.806 249.165 134.806ZM254.373 116.702C254.373 113.664 252.637 110.688 248.607 110.688C245.011 110.688 242.407 112.734 242.097 116.702H254.373Z" fill="white"/>
</svg>
